<?xml version="1.0" standalone="no"?><svg xmlns="http://www.w3.org/2000/svg" viewBox="0 0 1440 320"><path fill="#7A542E" fill-opacity="1" d="M0,160L15,170.7C30,181,60,203,90,197.3C120,192,150,160,180,176C210,192,240,256,270,245.3C300,235,330,149,360,144C390,139,420,213,450,208C480,203,510,117,540,117.3C570,117,600,203,630,218.7C660,235,690,181,720,181.3C750,181,780,235,810,266.7C840,299,870,309,900,309.3C930,309,960,299,990,282.7C1020,267,1050,245,1080,240C1110,235,1140,245,1170,213.3C1200,181,1230,107,1260,112C1290,117,1320,203,1350,218.7C1380,235,1410,181,1425,154.7L1440,128L1440,320L1425,320C1410,320,1380,320,1350,320C1320,320,1290,320,1260,320C1230,320,1200,320,1170,320C1140,320,1110,320,1080,320C1050,320,1020,320,990,320C960,320,930,320,900,320C870,320,840,320,810,320C780,320,750,320,720,320C690,320,660,320,630,320C600,320,570,320,540,320C510,320,480,320,450,320C420,320,390,320,360,320C330,320,300,320,270,320C240,320,210,320,180,320C150,320,120,320,90,320C60,320,30,320,15,320L0,320Z"></path></svg>